<svg width="726" height="272" viewBox="0 0 726 272" fill="none" xmlns="http://www.w3.org/2000/svg">
<mask id="path-1-outside-1_6_1045" maskUnits="userSpaceOnUse" x="34.6" y="154" width="689" height="23" fill="black">
<rect fill="white" x="34.6" y="154" width="689" height="23"/>
<path d="M34.6 155H723.6V176H34.6V155Z"/>
</mask>
<path d="M34.6 155V155.7H723.6V155V154.3H34.6V155ZM723.6 176V175.3H34.6V176V176.7H723.6V176Z" fill="#484848" mask="url(#path-1-outside-1_6_1045)"/>
<g clip-path="url(#clip0_6_1045)">
<line x1="751.593" y1="196.811" x2="616.282" y2="46.5329" stroke="white"/>
<line x1="735.434" y1="211.36" x2="600.123" y2="61.0825" stroke="white"/>
<line x1="740.82" y1="206.51" x2="605.509" y2="56.2326" stroke="white"/>
<line x1="746.206" y1="201.66" x2="610.896" y2="51.3827" stroke="white"/>
<line x1="773.138" y1="177.411" x2="637.827" y2="27.1335" stroke="white"/>
<line x1="767.752" y1="182.261" x2="632.441" y2="31.9833" stroke="white"/>
<line x1="762.365" y1="187.111" x2="627.055" y2="36.8332" stroke="white"/>
<line x1="756.979" y1="191.961" x2="621.668" y2="41.683" stroke="white"/>
<line x1="730.048" y1="216.21" x2="594.737" y2="65.9322" stroke="white"/>
<line x1="724.661" y1="221.06" x2="589.35" y2="70.782" stroke="white"/>
<line x1="719.275" y1="225.91" x2="583.964" y2="75.6319" stroke="white"/>
<line x1="794.683" y1="158.012" x2="659.372" y2="7.73413" stroke="white"/>
<line x1="778.524" y1="172.561" x2="643.214" y2="22.2836" stroke="white"/>
<line x1="783.911" y1="167.712" x2="648.6" y2="17.4338" stroke="white"/>
<line x1="789.297" y1="162.862" x2="653.986" y2="12.5839" stroke="white"/>
<line x1="816.228" y1="138.612" x2="680.918" y2="-11.6653" stroke="white"/>
<line x1="810.842" y1="143.462" x2="675.531" y2="-6.81544" stroke="white"/>
<line x1="805.456" y1="148.312" x2="670.145" y2="-1.96558" stroke="white"/>
<line x1="800.069" y1="153.162" x2="664.759" y2="2.88427" stroke="white"/>
<line x1="794.683" y1="158.012" x2="659.372" y2="7.73413" stroke="white"/>
<line x1="778.524" y1="172.561" x2="643.214" y2="22.2836" stroke="white"/>
<line x1="783.911" y1="167.712" x2="648.6" y2="17.4338" stroke="white"/>
<line x1="789.297" y1="162.862" x2="653.986" y2="12.5839" stroke="white"/>
<line x1="816.228" y1="138.612" x2="680.918" y2="-11.6653" stroke="white"/>
<line x1="810.842" y1="143.462" x2="675.531" y2="-6.81544" stroke="white"/>
<line x1="805.456" y1="148.312" x2="670.145" y2="-1.96558" stroke="white"/>
<line x1="800.069" y1="153.162" x2="664.759" y2="2.88427" stroke="white"/>
<line x1="807.593" y1="198.811" x2="672.282" y2="48.5329" stroke="white"/>
<line x1="791.434" y1="213.36" x2="656.123" y2="63.0825" stroke="white"/>
<line x1="796.82" y1="208.51" x2="661.509" y2="58.2326" stroke="white"/>
<line x1="802.206" y1="203.66" x2="666.896" y2="53.3827" stroke="white"/>
<line x1="829.138" y1="179.411" x2="693.827" y2="29.1335" stroke="white"/>
<line x1="823.752" y1="184.261" x2="688.441" y2="33.9833" stroke="white"/>
<line x1="818.365" y1="189.111" x2="683.055" y2="38.8332" stroke="white"/>
<line x1="812.979" y1="193.961" x2="677.668" y2="43.683" stroke="white"/>
<line x1="764.502" y1="237.609" x2="629.192" y2="87.3316" stroke="white"/>
<line x1="748.343" y1="252.159" x2="613.033" y2="101.881" stroke="white"/>
<line x1="753.73" y1="247.309" x2="618.419" y2="97.0313" stroke="white"/>
<line x1="759.116" y1="242.459" x2="623.805" y2="92.1814" stroke="white"/>
<line x1="786.048" y1="218.21" x2="650.737" y2="67.9322" stroke="white"/>
<line x1="780.661" y1="223.06" x2="645.35" y2="72.782" stroke="white"/>
<line x1="775.275" y1="227.91" x2="639.964" y2="77.6319" stroke="white"/>
<line x1="769.889" y1="232.759" x2="634.578" y2="82.4817" stroke="white"/>
<line x1="850.683" y1="160.012" x2="715.372" y2="9.73413" stroke="white"/>
<line x1="834.524" y1="174.561" x2="699.214" y2="24.2836" stroke="white"/>
<line x1="839.911" y1="169.712" x2="704.6" y2="19.4338" stroke="white"/>
<line x1="845.297" y1="164.862" x2="709.986" y2="14.5839" stroke="white"/>
<line x1="856.069" y1="155.162" x2="720.759" y2="4.88427" stroke="white"/>
<line x1="850.683" y1="160.012" x2="715.372" y2="9.73413" stroke="white"/>
<line x1="834.524" y1="174.561" x2="699.214" y2="24.2836" stroke="white"/>
<line x1="839.911" y1="169.712" x2="704.6" y2="19.4338" stroke="white"/>
<line x1="845.297" y1="164.862" x2="709.986" y2="14.5839" stroke="white"/>
<line x1="856.069" y1="155.162" x2="720.759" y2="4.88427" stroke="white"/>
</g>
<g clip-path="url(#clip1_6_1045)">
<line x1="257.134" y1="-11.1061" x2="106.856" y2="124.205" stroke="white"/>
<line x1="271.684" y1="5.05272" x2="121.406" y2="140.363" stroke="white"/>
<line x1="266.834" y1="-0.333567" x2="116.556" y2="134.977" stroke="white"/>
<line x1="261.984" y1="-5.7198" x2="111.706" y2="129.591" stroke="white"/>
<line x1="237.735" y1="-32.6513" x2="87.457" y2="102.659" stroke="white"/>
<line x1="242.585" y1="-27.265" x2="92.3068" y2="108.046" stroke="white"/>
<line x1="247.434" y1="-21.8788" x2="97.1567" y2="113.432" stroke="white"/>
<line x1="252.284" y1="-16.4925" x2="102.007" y2="118.818" stroke="white"/>
<line x1="295.933" y1="31.9842" x2="145.655" y2="167.295" stroke="white"/>
<line x1="276.533" y1="10.439" x2="126.256" y2="145.75" stroke="white"/>
<line x1="281.383" y1="15.8254" x2="131.106" y2="151.136" stroke="white"/>
<line x1="286.233" y1="21.2117" x2="135.955" y2="156.522" stroke="white"/>
<line x1="291.083" y1="26.598" x2="140.805" y2="161.909" stroke="white"/>
<line x1="218.335" y1="-54.1965" x2="68.0576" y2="81.1141" stroke="white"/>
<line x1="232.885" y1="-38.0375" x2="82.6071" y2="97.2731" stroke="white"/>
<line x1="228.035" y1="-43.424" x2="77.7573" y2="91.8866" stroke="white"/>
<line x1="223.185" y1="-48.8103" x2="72.9074" y2="86.5004" stroke="white"/>
<line x1="198.936" y1="-75.7418" x2="48.6582" y2="59.5688" stroke="white"/>
<line x1="203.786" y1="-70.3555" x2="53.5081" y2="64.9552" stroke="white"/>
<line x1="208.636" y1="-64.9692" x2="58.3579" y2="70.3415" stroke="white"/>
<line x1="213.486" y1="-59.5828" x2="63.2078" y2="75.7279" stroke="white"/>
<line x1="218.335" y1="-54.1965" x2="68.0576" y2="81.1141" stroke="white"/>
<line x1="232.885" y1="-38.0375" x2="82.6071" y2="97.2731" stroke="white"/>
<line x1="228.035" y1="-43.424" x2="77.7573" y2="91.8866" stroke="white"/>
<line x1="223.185" y1="-48.8103" x2="72.9074" y2="86.5004" stroke="white"/>
<line x1="198.936" y1="-75.7418" x2="48.6582" y2="59.5688" stroke="white"/>
<line x1="203.786" y1="-70.3555" x2="53.5081" y2="64.9552" stroke="white"/>
<line x1="208.636" y1="-64.9692" x2="58.3579" y2="70.3415" stroke="white"/>
<line x1="213.486" y1="-59.5828" x2="63.2078" y2="75.7279" stroke="white"/>
<line x1="259.134" y1="-67.1061" x2="108.856" y2="68.2046" stroke="white"/>
<line x1="273.684" y1="-50.9473" x2="123.406" y2="84.3634" stroke="white"/>
<line x1="268.834" y1="-56.3336" x2="118.556" y2="78.9771" stroke="white"/>
<line x1="263.984" y1="-61.7198" x2="113.706" y2="73.5909" stroke="white"/>
<line x1="239.735" y1="-88.6513" x2="89.457" y2="46.6593" stroke="white"/>
<line x1="244.585" y1="-83.265" x2="94.3068" y2="52.0456" stroke="white"/>
<line x1="249.434" y1="-77.8788" x2="99.1567" y2="57.4319" stroke="white"/>
<line x1="254.284" y1="-72.4925" x2="104.007" y2="62.8182" stroke="white"/>
<line x1="297.933" y1="-24.0158" x2="147.655" y2="111.295" stroke="white"/>
<line x1="312.482" y1="-7.85682" x2="162.205" y2="127.454" stroke="white"/>
<line x1="307.633" y1="-13.2431" x2="157.355" y2="122.068" stroke="white"/>
<line x1="302.783" y1="-18.6293" x2="152.505" y2="116.681" stroke="white"/>
<line x1="278.533" y1="-45.561" x2="128.256" y2="89.7496" stroke="white"/>
<line x1="283.383" y1="-40.1746" x2="133.106" y2="95.1361" stroke="white"/>
<line x1="288.233" y1="-34.7883" x2="137.955" y2="100.522" stroke="white"/>
<line x1="293.083" y1="-29.402" x2="142.805" y2="105.909" stroke="white"/>
<line x1="220.335" y1="-110.197" x2="70.0576" y2="25.1141" stroke="white"/>
<line x1="234.885" y1="-94.0375" x2="84.6071" y2="41.2731" stroke="white"/>
<line x1="230.035" y1="-99.424" x2="79.7573" y2="35.8866" stroke="white"/>
<line x1="225.185" y1="-104.81" x2="74.9074" y2="30.5004" stroke="white"/>
<line x1="215.486" y1="-115.583" x2="65.2078" y2="19.7279" stroke="white"/>
<line x1="220.335" y1="-110.197" x2="70.0576" y2="25.1141" stroke="white"/>
<line x1="234.885" y1="-94.0375" x2="84.6071" y2="41.2731" stroke="white"/>
<line x1="230.035" y1="-99.424" x2="79.7573" y2="35.8866" stroke="white"/>
<line x1="225.185" y1="-104.81" x2="74.9074" y2="30.5004" stroke="white"/>
<line x1="215.486" y1="-115.583" x2="65.2078" y2="19.7279" stroke="white"/>
</g>
<g clip-path="url(#clip2_6_1045)">
<line x1="444.646" y1="50.3676" x2="644.731" y2="21.0741" stroke="white"/>
<line x1="448.846" y1="79.0538" x2="648.931" y2="49.7603" stroke="white"/>
<line x1="445.696" y1="57.5391" x2="645.781" y2="28.2456" stroke="white"/>
<line x1="446.746" y1="64.7108" x2="646.831" y2="35.4173" stroke="white"/>
<line x1="447.796" y1="71.8823" x2="647.881" y2="42.5888" stroke="white"/>
<line x1="449.895" y1="86.2253" x2="649.981" y2="56.9318" stroke="white"/>
<line x1="448.846" y1="79.0538" x2="648.931" y2="49.7603" stroke="white"/>
<line x1="445.696" y1="57.5391" x2="645.781" y2="28.2456" stroke="white"/>
<line x1="446.746" y1="64.7108" x2="646.831" y2="35.4173" stroke="white"/>
<line x1="447.796" y1="71.8823" x2="647.881" y2="42.5888" stroke="white"/>
<line x1="449.895" y1="86.2253" x2="649.981" y2="56.9318" stroke="white"/>
<line x1="407.734" y1="67.1779" x2="607.82" y2="37.8844" stroke="white"/>
<line x1="404.584" y1="45.6634" x2="604.67" y2="16.3699" stroke="white"/>
<line x1="405.634" y1="52.8349" x2="605.72" y2="23.5414" stroke="white"/>
<line x1="406.684" y1="60.0064" x2="606.77" y2="30.7129" stroke="white"/>
<line x1="410.884" y1="88.6925" x2="610.969" y2="59.399" stroke="white"/>
<line x1="409.834" y1="81.5211" x2="609.919" y2="52.2276" stroke="white"/>
<line x1="408.784" y1="74.3496" x2="608.869" y2="45.0561" stroke="white"/>
</g>
<g clip-path="url(#clip3_6_1045)">
<line x1="191.052" y1="235.595" x2="367.357" y2="136.554" stroke="white"/>
<line x1="183.952" y1="222.956" x2="360.257" y2="123.916" stroke="white"/>
<line x1="187.502" y1="229.275" x2="363.807" y2="130.235" stroke="white"/>
<line x1="205.251" y1="260.871" x2="381.556" y2="161.831" stroke="white"/>
<line x1="201.701" y1="254.552" x2="378.006" y2="155.512" stroke="white"/>
<line x1="198.151" y1="248.233" x2="374.456" y2="149.193" stroke="white"/>
<line x1="194.602" y1="241.914" x2="370.906" y2="142.874" stroke="white"/>
<line x1="219.45" y1="286.148" x2="395.755" y2="187.108" stroke="white"/>
<line x1="208.801" y1="267.19" x2="385.106" y2="168.15" stroke="white"/>
<line x1="212.351" y1="273.51" x2="388.656" y2="174.469" stroke="white"/>
<line x1="215.901" y1="279.829" x2="392.206" y2="180.789" stroke="white"/>
<line x1="233.65" y1="311.425" x2="409.955" y2="212.384" stroke="white"/>
<line x1="230.1" y1="305.106" x2="406.405" y2="206.065" stroke="white"/>
<line x1="226.55" y1="298.786" x2="402.855" y2="199.746" stroke="white"/>
<line x1="223" y1="292.467" x2="399.305" y2="193.427" stroke="white"/>
<line x1="219.45" y1="286.148" x2="395.755" y2="187.108" stroke="white"/>
<line x1="208.801" y1="267.19" x2="385.106" y2="168.15" stroke="white"/>
<line x1="212.351" y1="273.51" x2="388.656" y2="174.469" stroke="white"/>
<line x1="215.901" y1="279.829" x2="392.206" y2="180.789" stroke="white"/>
<line x1="233.65" y1="311.425" x2="409.955" y2="212.384" stroke="white"/>
<line x1="230.1" y1="305.106" x2="406.405" y2="206.065" stroke="white"/>
<line x1="226.55" y1="298.786" x2="402.855" y2="199.746" stroke="white"/>
<line x1="223" y1="292.467" x2="399.305" y2="193.427" stroke="white"/>
<line x1="176.813" y1="289.791" x2="353.118" y2="190.751" stroke="white"/>
<line x1="166.164" y1="270.834" x2="342.469" y2="171.793" stroke="white"/>
<line x1="169.714" y1="277.153" x2="346.019" y2="178.112" stroke="white"/>
<line x1="173.264" y1="283.472" x2="349.568" y2="184.432" stroke="white"/>
<line x1="191.013" y1="315.068" x2="367.318" y2="216.028" stroke="white"/>
<line x1="187.463" y1="308.749" x2="363.768" y2="209.708" stroke="white"/>
<line x1="183.913" y1="302.43" x2="360.218" y2="203.389" stroke="white"/>
<line x1="180.363" y1="296.11" x2="356.668" y2="197.07" stroke="white"/>
<line x1="148.415" y1="239.238" x2="324.72" y2="140.198" stroke="white"/>
<line x1="141.315" y1="226.599" x2="317.62" y2="127.559" stroke="white"/>
<line x1="144.865" y1="232.919" x2="321.17" y2="133.878" stroke="white"/>
<line x1="162.614" y1="264.515" x2="338.919" y2="165.474" stroke="white"/>
<line x1="159.064" y1="258.195" x2="335.369" y2="159.155" stroke="white"/>
<line x1="155.514" y1="251.876" x2="331.819" y2="152.836" stroke="white"/>
<line x1="151.965" y1="245.557" x2="328.269" y2="146.517" stroke="white"/>
<line x1="194.563" y1="321.387" x2="370.867" y2="222.347" stroke="white"/>
<line x1="198.112" y1="327.706" x2="374.417" y2="228.666" stroke="white"/>
<line x1="194.563" y1="321.387" x2="370.867" y2="222.347" stroke="white"/>
<line x1="198.112" y1="327.706" x2="374.417" y2="228.666" stroke="white"/>
</g>
<g clip-path="url(#clip4_6_1045)">
<line x1="243.248" y1="30.4147" x2="419.52" y2="-68.683" stroke="white"/>
<line x1="236.144" y1="17.7788" x2="412.416" y2="-81.3189" stroke="white"/>
<line x1="239.696" y1="24.0967" x2="415.968" y2="-75.001" stroke="white"/>
<line x1="257.455" y1="55.6868" x2="433.728" y2="-43.4109" stroke="white"/>
<line x1="253.903" y1="49.3688" x2="430.176" y2="-49.7289" stroke="white"/>
<line x1="250.351" y1="43.0508" x2="426.624" y2="-56.0469" stroke="white"/>
<line x1="246.8" y1="36.7329" x2="423.072" y2="-62.3648" stroke="white"/>
<line x1="271.663" y1="80.9589" x2="447.935" y2="-18.1388" stroke="white"/>
<line x1="261.007" y1="62.0048" x2="437.28" y2="-37.0929" stroke="white"/>
<line x1="264.559" y1="68.3229" x2="440.832" y2="-30.7748" stroke="white"/>
<line x1="268.111" y1="74.6409" x2="444.383" y2="-24.4568" stroke="white"/>
<line x1="285.87" y1="106.231" x2="462.143" y2="7.13336" stroke="white"/>
<line x1="282.318" y1="99.913" x2="458.591" y2="0.81531" stroke="white"/>
<line x1="278.767" y1="93.595" x2="455.039" y2="-5.50268" stroke="white"/>
<line x1="275.215" y1="87.2768" x2="451.487" y2="-11.8209" stroke="white"/>
<line x1="271.663" y1="80.9589" x2="447.935" y2="-18.1388" stroke="white"/>
<line x1="261.007" y1="62.0048" x2="437.28" y2="-37.0929" stroke="white"/>
<line x1="264.559" y1="68.3229" x2="440.832" y2="-30.7748" stroke="white"/>
<line x1="268.111" y1="74.6409" x2="444.383" y2="-24.4568" stroke="white"/>
<line x1="285.87" y1="106.231" x2="462.143" y2="7.13336" stroke="white"/>
<line x1="282.318" y1="99.913" x2="458.591" y2="0.81531" stroke="white"/>
<line x1="278.767" y1="93.595" x2="455.039" y2="-5.50268" stroke="white"/>
<line x1="275.215" y1="87.2768" x2="451.487" y2="-11.8209" stroke="white"/>
<line x1="229.027" y1="84.6159" x2="405.299" y2="-14.4818" stroke="white"/>
<line x1="218.371" y1="65.6619" x2="394.644" y2="-33.4357" stroke="white"/>
<line x1="221.923" y1="71.9799" x2="398.196" y2="-27.1177" stroke="white"/>
<line x1="225.475" y1="78.2979" x2="401.748" y2="-20.7998" stroke="white"/>
<line x1="243.234" y1="109.888" x2="419.507" y2="10.7903" stroke="white"/>
<line x1="239.682" y1="103.57" x2="415.955" y2="4.47229" stroke="white"/>
<line x1="236.131" y1="97.252" x2="412.403" y2="-1.8457" stroke="white"/>
<line x1="232.579" y1="90.934" x2="408.851" y2="-8.16363" stroke="white"/>
<line x1="200.612" y1="34.0718" x2="376.884" y2="-65.0258" stroke="white"/>
<line x1="193.508" y1="21.4357" x2="369.781" y2="-77.6619" stroke="white"/>
<line x1="197.06" y1="27.7537" x2="373.332" y2="-71.3439" stroke="white"/>
<line x1="214.819" y1="59.3439" x2="391.092" y2="-39.7537" stroke="white"/>
<line x1="211.267" y1="53.0258" x2="387.54" y2="-46.0719" stroke="white"/>
<line x1="207.715" y1="46.7078" x2="383.988" y2="-52.3898" stroke="white"/>
<line x1="204.164" y1="40.3898" x2="380.436" y2="-58.7078" stroke="white"/>
<line x1="246.786" y1="116.206" x2="423.059" y2="17.1083" stroke="white"/>
<line x1="250.338" y1="122.524" x2="426.611" y2="23.4264" stroke="white"/>
<line x1="253.89" y1="128.842" x2="430.163" y2="29.7444" stroke="white"/>
<line x1="246.786" y1="116.206" x2="423.059" y2="17.1083" stroke="white"/>
<line x1="250.338" y1="122.524" x2="426.611" y2="23.4264" stroke="white"/>
<line x1="253.89" y1="128.842" x2="430.163" y2="29.7444" stroke="white"/>
</g>
<g clip-path="url(#clip5_6_1045)">
<line x1="68.5927" y1="265.811" x2="-66.718" y2="115.533" stroke="white"/>
<line x1="52.4338" y1="280.36" x2="-82.8768" y2="130.082" stroke="white"/>
<line x1="57.8201" y1="275.51" x2="-77.4905" y2="125.233" stroke="white"/>
<line x1="63.2064" y1="270.66" x2="-72.1043" y2="120.383" stroke="white"/>
<line x1="90.1379" y1="246.411" x2="-45.1728" y2="96.1336" stroke="white"/>
<line x1="84.7516" y1="251.261" x2="-50.5591" y2="100.983" stroke="white"/>
<line x1="79.3654" y1="256.111" x2="-55.9453" y2="105.833" stroke="white"/>
<line x1="73.9791" y1="260.961" x2="-61.3316" y2="110.683" stroke="white"/>
<line x1="47.0476" y1="285.21" x2="-88.263" y2="134.932" stroke="white"/>
<line x1="41.6611" y1="290.06" x2="-93.6495" y2="139.782" stroke="white"/>
<line x1="36.2749" y1="294.91" x2="-99.0358" y2="144.632" stroke="white"/>
<line x1="111.683" y1="227.012" x2="-23.6275" y2="76.7342" stroke="white"/>
<line x1="95.5241" y1="241.561" x2="-39.7865" y2="91.2837" stroke="white"/>
<line x1="100.911" y1="236.712" x2="-34.4001" y2="86.4339" stroke="white"/>
<line x1="106.297" y1="231.862" x2="-29.0138" y2="81.584" stroke="white"/>
<line x1="133.228" y1="207.613" x2="-2.08226" y2="57.3348" stroke="white"/>
<line x1="127.842" y1="212.462" x2="-7.46861" y2="62.1846" stroke="white"/>
<line x1="122.456" y1="217.312" x2="-12.8549" y2="67.0345" stroke="white"/>
<line x1="117.069" y1="222.162" x2="-18.2413" y2="71.8843" stroke="white"/>
<line x1="111.683" y1="227.012" x2="-23.6275" y2="76.7342" stroke="white"/>
<line x1="95.5241" y1="241.561" x2="-39.7865" y2="91.2837" stroke="white"/>
<line x1="100.911" y1="236.712" x2="-34.4001" y2="86.4339" stroke="white"/>
<line x1="106.297" y1="231.862" x2="-29.0138" y2="81.584" stroke="white"/>
<line x1="133.228" y1="207.613" x2="-2.08226" y2="57.3348" stroke="white"/>
<line x1="127.842" y1="212.462" x2="-7.46861" y2="62.1846" stroke="white"/>
<line x1="122.456" y1="217.312" x2="-12.8549" y2="67.0345" stroke="white"/>
<line x1="117.069" y1="222.162" x2="-18.2413" y2="71.8843" stroke="white"/>
<line x1="124.593" y1="267.811" x2="-10.718" y2="117.533" stroke="white"/>
<line x1="108.434" y1="282.36" x2="-26.8768" y2="132.082" stroke="white"/>
<line x1="113.82" y1="277.51" x2="-21.4905" y2="127.233" stroke="white"/>
<line x1="119.206" y1="272.66" x2="-16.1043" y2="122.383" stroke="white"/>
<line x1="146.138" y1="248.411" x2="10.8272" y2="98.1336" stroke="white"/>
<line x1="140.752" y1="253.261" x2="5.44093" y2="102.983" stroke="white"/>
<line x1="135.365" y1="258.111" x2="0.0547034" y2="107.833" stroke="white"/>
<line x1="129.979" y1="262.961" x2="-5.33159" y2="112.683" stroke="white"/>
<line x1="81.5024" y1="306.609" x2="-53.8083" y2="156.332" stroke="white"/>
<line x1="65.3434" y1="321.159" x2="-69.9673" y2="170.881" stroke="white"/>
<line x1="70.7297" y1="316.309" x2="-64.581" y2="166.031" stroke="white"/>
<line x1="76.1159" y1="311.459" x2="-59.1947" y2="161.182" stroke="white"/>
<line x1="103.048" y1="287.21" x2="-32.263" y2="136.932" stroke="white"/>
<line x1="97.6611" y1="292.06" x2="-37.6495" y2="141.782" stroke="white"/>
<line x1="92.2749" y1="296.91" x2="-43.0358" y2="146.632" stroke="white"/>
<line x1="86.8886" y1="301.76" x2="-48.422" y2="151.482" stroke="white"/>
<line x1="167.683" y1="229.012" x2="32.3725" y2="78.7342" stroke="white"/>
<line x1="151.524" y1="243.561" x2="16.2135" y2="93.2837" stroke="white"/>
<line x1="156.911" y1="238.712" x2="21.5999" y2="88.4339" stroke="white"/>
<line x1="162.297" y1="233.862" x2="26.9862" y2="83.584" stroke="white"/>
<line x1="173.069" y1="224.162" x2="37.7587" y2="73.8843" stroke="white"/>
<line x1="167.683" y1="229.012" x2="32.3725" y2="78.7342" stroke="white"/>
<line x1="151.524" y1="243.561" x2="16.2135" y2="93.2837" stroke="white"/>
<line x1="156.911" y1="238.712" x2="21.5999" y2="88.4339" stroke="white"/>
<line x1="162.297" y1="233.862" x2="26.9862" y2="83.584" stroke="white"/>
<line x1="173.069" y1="224.162" x2="37.7587" y2="73.8843" stroke="white"/>
</g>
<g clip-path="url(#clip6_6_1045)">
<line x1="68.5927" y1="196.811" x2="-66.718" y2="46.5329" stroke="white"/>
<line x1="52.4338" y1="211.36" x2="-82.8768" y2="61.0825" stroke="white"/>
<line x1="57.8201" y1="206.51" x2="-77.4905" y2="56.2326" stroke="white"/>
<line x1="63.2064" y1="201.66" x2="-72.1043" y2="51.3827" stroke="white"/>
<line x1="90.1379" y1="177.411" x2="-45.1728" y2="27.1335" stroke="white"/>
<line x1="84.7516" y1="182.261" x2="-50.5591" y2="31.9833" stroke="white"/>
<line x1="79.3654" y1="187.111" x2="-55.9453" y2="36.8332" stroke="white"/>
<line x1="73.9791" y1="191.961" x2="-61.3316" y2="41.683" stroke="white"/>
<line x1="47.0476" y1="216.21" x2="-88.263" y2="65.9322" stroke="white"/>
<line x1="41.6611" y1="221.06" x2="-93.6495" y2="70.782" stroke="white"/>
<line x1="36.2749" y1="225.91" x2="-99.0358" y2="75.6319" stroke="white"/>
<line x1="111.683" y1="158.012" x2="-23.6275" y2="7.73413" stroke="white"/>
<line x1="95.5241" y1="172.561" x2="-39.7865" y2="22.2836" stroke="white"/>
<line x1="100.911" y1="167.712" x2="-34.4001" y2="17.4338" stroke="white"/>
<line x1="106.297" y1="162.862" x2="-29.0138" y2="12.5839" stroke="white"/>
<line x1="133.228" y1="138.612" x2="-2.08226" y2="-11.6653" stroke="white"/>
<line x1="127.842" y1="143.462" x2="-7.46861" y2="-6.81544" stroke="white"/>
<line x1="122.456" y1="148.312" x2="-12.8549" y2="-1.96558" stroke="white"/>
<line x1="117.069" y1="153.162" x2="-18.2413" y2="2.88427" stroke="white"/>
<line x1="111.683" y1="158.012" x2="-23.6275" y2="7.73413" stroke="white"/>
<line x1="95.5241" y1="172.561" x2="-39.7865" y2="22.2836" stroke="white"/>
<line x1="100.911" y1="167.712" x2="-34.4001" y2="17.4338" stroke="white"/>
<line x1="106.297" y1="162.862" x2="-29.0138" y2="12.5839" stroke="white"/>
<line x1="133.228" y1="138.612" x2="-2.08226" y2="-11.6653" stroke="white"/>
<line x1="127.842" y1="143.462" x2="-7.46861" y2="-6.81544" stroke="white"/>
<line x1="122.456" y1="148.312" x2="-12.8549" y2="-1.96558" stroke="white"/>
<line x1="117.069" y1="153.162" x2="-18.2413" y2="2.88427" stroke="white"/>
<line x1="124.593" y1="198.811" x2="-10.718" y2="48.5329" stroke="white"/>
<line x1="108.434" y1="213.36" x2="-26.8768" y2="63.0825" stroke="white"/>
<line x1="113.82" y1="208.51" x2="-21.4905" y2="58.2326" stroke="white"/>
<line x1="119.206" y1="203.66" x2="-16.1043" y2="53.3827" stroke="white"/>
<line x1="146.138" y1="179.411" x2="10.8272" y2="29.1335" stroke="white"/>
<line x1="140.752" y1="184.261" x2="5.44093" y2="33.9833" stroke="white"/>
<line x1="135.365" y1="189.111" x2="0.0547034" y2="38.8332" stroke="white"/>
<line x1="129.979" y1="193.961" x2="-5.33159" y2="43.683" stroke="white"/>
<line x1="81.5024" y1="237.609" x2="-53.8083" y2="87.3316" stroke="white"/>
<line x1="65.3434" y1="252.159" x2="-69.9673" y2="101.881" stroke="white"/>
<line x1="70.7297" y1="247.309" x2="-64.581" y2="97.0313" stroke="white"/>
<line x1="76.1159" y1="242.459" x2="-59.1947" y2="92.1814" stroke="white"/>
<line x1="103.048" y1="218.21" x2="-32.263" y2="67.9322" stroke="white"/>
<line x1="97.6611" y1="223.06" x2="-37.6495" y2="72.782" stroke="white"/>
<line x1="92.2749" y1="227.91" x2="-43.0358" y2="77.6319" stroke="white"/>
<line x1="86.8886" y1="232.759" x2="-48.422" y2="82.4817" stroke="white"/>
<line x1="167.683" y1="160.012" x2="32.3725" y2="9.73413" stroke="white"/>
<line x1="151.524" y1="174.561" x2="16.2135" y2="24.2836" stroke="white"/>
<line x1="156.911" y1="169.712" x2="21.5999" y2="19.4338" stroke="white"/>
<line x1="162.297" y1="164.862" x2="26.9862" y2="14.5839" stroke="white"/>
<line x1="173.069" y1="155.162" x2="37.7587" y2="4.88427" stroke="white"/>
<line x1="167.683" y1="160.012" x2="32.3725" y2="9.73413" stroke="white"/>
<line x1="151.524" y1="174.561" x2="16.2135" y2="24.2836" stroke="white"/>
<line x1="156.911" y1="169.712" x2="21.5999" y2="19.4338" stroke="white"/>
<line x1="162.297" y1="164.862" x2="26.9862" y2="14.5839" stroke="white"/>
<line x1="173.069" y1="155.162" x2="37.7587" y2="4.88427" stroke="white"/>
</g>
<g clip-path="url(#clip7_6_1045)">
<line x1="749.593" y1="265.811" x2="614.282" y2="115.533" stroke="white"/>
<line x1="733.434" y1="280.36" x2="598.123" y2="130.082" stroke="white"/>
<line x1="738.82" y1="275.51" x2="603.509" y2="125.233" stroke="white"/>
<line x1="744.206" y1="270.66" x2="608.896" y2="120.383" stroke="white"/>
<line x1="771.138" y1="246.411" x2="635.827" y2="96.1336" stroke="white"/>
<line x1="765.752" y1="251.261" x2="630.441" y2="100.983" stroke="white"/>
<line x1="760.365" y1="256.111" x2="625.055" y2="105.833" stroke="white"/>
<line x1="754.979" y1="260.961" x2="619.668" y2="110.683" stroke="white"/>
<line x1="728.048" y1="285.21" x2="592.737" y2="134.932" stroke="white"/>
<line x1="722.661" y1="290.06" x2="587.35" y2="139.782" stroke="white"/>
<line x1="717.275" y1="294.91" x2="581.964" y2="144.632" stroke="white"/>
<line x1="792.683" y1="227.012" x2="657.372" y2="76.7342" stroke="white"/>
<line x1="776.524" y1="241.561" x2="641.214" y2="91.2837" stroke="white"/>
<line x1="781.911" y1="236.712" x2="646.6" y2="86.4339" stroke="white"/>
<line x1="787.297" y1="231.862" x2="651.986" y2="81.584" stroke="white"/>
<line x1="814.228" y1="207.613" x2="678.918" y2="57.3348" stroke="white"/>
<line x1="808.842" y1="212.462" x2="673.531" y2="62.1846" stroke="white"/>
<line x1="803.456" y1="217.312" x2="668.145" y2="67.0345" stroke="white"/>
<line x1="798.069" y1="222.162" x2="662.759" y2="71.8843" stroke="white"/>
<line x1="792.683" y1="227.012" x2="657.372" y2="76.7342" stroke="white"/>
<line x1="776.524" y1="241.561" x2="641.214" y2="91.2837" stroke="white"/>
<line x1="781.911" y1="236.712" x2="646.6" y2="86.4339" stroke="white"/>
<line x1="787.297" y1="231.862" x2="651.986" y2="81.584" stroke="white"/>
<line x1="814.228" y1="207.613" x2="678.918" y2="57.3348" stroke="white"/>
<line x1="808.842" y1="212.462" x2="673.531" y2="62.1846" stroke="white"/>
<line x1="803.456" y1="217.312" x2="668.145" y2="67.0345" stroke="white"/>
<line x1="798.069" y1="222.162" x2="662.759" y2="71.8843" stroke="white"/>
<line x1="805.593" y1="267.811" x2="670.282" y2="117.533" stroke="white"/>
<line x1="789.434" y1="282.36" x2="654.123" y2="132.082" stroke="white"/>
<line x1="794.82" y1="277.51" x2="659.509" y2="127.233" stroke="white"/>
<line x1="800.206" y1="272.66" x2="664.896" y2="122.383" stroke="white"/>
<line x1="827.138" y1="248.411" x2="691.827" y2="98.1336" stroke="white"/>
<line x1="821.752" y1="253.261" x2="686.441" y2="102.983" stroke="white"/>
<line x1="816.365" y1="258.111" x2="681.055" y2="107.833" stroke="white"/>
<line x1="810.979" y1="262.961" x2="675.668" y2="112.683" stroke="white"/>
<line x1="762.502" y1="306.609" x2="627.192" y2="156.332" stroke="white"/>
<line x1="746.343" y1="321.159" x2="611.033" y2="170.881" stroke="white"/>
<line x1="751.73" y1="316.309" x2="616.419" y2="166.031" stroke="white"/>
<line x1="757.116" y1="311.459" x2="621.805" y2="161.182" stroke="white"/>
<line x1="784.048" y1="287.21" x2="648.737" y2="136.932" stroke="white"/>
<line x1="778.661" y1="292.06" x2="643.35" y2="141.782" stroke="white"/>
<line x1="773.275" y1="296.91" x2="637.964" y2="146.632" stroke="white"/>
<line x1="767.889" y1="301.76" x2="632.578" y2="151.482" stroke="white"/>
<line x1="848.683" y1="229.012" x2="713.372" y2="78.7342" stroke="white"/>
<line x1="832.524" y1="243.561" x2="697.214" y2="93.2837" stroke="white"/>
<line x1="837.911" y1="238.712" x2="702.6" y2="88.4339" stroke="white"/>
<line x1="843.297" y1="233.862" x2="707.986" y2="83.584" stroke="white"/>
<line x1="854.069" y1="224.162" x2="718.759" y2="73.8843" stroke="white"/>
<line x1="848.683" y1="229.012" x2="713.372" y2="78.7342" stroke="white"/>
<line x1="832.524" y1="243.561" x2="697.214" y2="93.2837" stroke="white"/>
<line x1="837.911" y1="238.712" x2="702.6" y2="88.4339" stroke="white"/>
<line x1="843.297" y1="233.862" x2="707.986" y2="83.584" stroke="white"/>
<line x1="854.069" y1="224.162" x2="718.759" y2="73.8843" stroke="white"/>
</g>
<path d="M190.858 86.0552C197.555 86.0552 203.401 87.0887 208.388 89.1665C213.366 91.2406 217.403 94.0662 220.486 97.6499L220.687 97.8833L220.482 98.1118L209.995 109.833L209.735 110.123L209.475 109.833C207.204 107.32 204.529 105.375 201.448 103.997L201.442 103.994C198.369 102.538 194.885 101.806 190.982 101.806C186.867 101.806 183.846 102.653 181.858 104.287C179.883 105.91 178.87 108.358 178.87 111.697C178.87 114.58 179.747 116.686 181.45 118.083C183.274 119.51 186.249 120.608 190.425 121.345H190.426L199.432 122.949L200.087 123.07C206.816 124.36 212.06 126.979 215.788 130.95C219.646 135.059 221.558 140.581 221.558 147.475C221.558 151.546 220.851 155.333 219.435 158.833L219.434 158.835C218.015 162.257 215.887 165.26 213.054 167.843L213.05 167.847C210.214 170.35 206.717 172.304 202.568 173.714L202.567 173.713C198.492 175.127 193.723 175.831 188.267 175.831C180.991 175.831 174.648 174.632 169.248 172.222C163.857 169.817 159.492 166.535 156.163 162.375L155.977 162.142L156.177 161.921L166.911 150.078L167.17 149.791L167.43 150.078C170.527 153.5 173.901 156.018 177.55 157.64L178.252 157.936C181.765 159.366 185.308 160.079 188.884 160.079C193.279 160.079 196.557 159.102 198.773 157.203C200.981 155.31 202.105 152.579 202.105 148.956C202.105 145.984 201.224 143.79 199.512 142.311L199.506 142.306C197.856 140.813 194.979 139.716 190.804 139.061L190.801 139.06L181.795 137.58H181.793C174.011 136.255 168.326 133.389 164.799 128.939L164.796 128.937V128.936C161.288 124.426 159.541 118.96 159.541 112.56C159.541 104.169 162.287 97.6466 167.81 93.0444C173.321 88.3692 181.02 86.0552 190.858 86.0552Z" fill="#060606" stroke="#7B7B7B" stroke-width="0.7"/>
<mask id="path-375-inside-2_6_1045" fill="white">
<path d="M34.6 86H725.6V103H34.6V86Z"/>
</mask>
<path d="M34.6 86V86.7H725.6V86V85.3H34.6V86ZM725.6 103V102.3H34.6V103V103.7H725.6V103Z" fill="#494949" mask="url(#path-375-inside-2_6_1045)"/>
<path d="M725.6 130L33.6 130" stroke="#2F2F2F" stroke-width="2" stroke-dasharray="10 10"/>
<path d="M22.6 98.2864L25.6833 94.0789L22.6803 90H24.2219L25.4745 91.7504L26.4702 93.1315H26.5344L27.4979 91.7504L28.7344 90H30.2119L27.1767 94.0629L30.2922 98.2864H28.7505L26.4059 95.0264H26.3417L24.0774 98.2864H22.6Z" fill="white"/>
<path d="M296.634 236.592L292.314 239.514L293.767 244.367L292.315 243.847L291.726 241.777L291.254 240.141L291.193 240.12L289.821 241.095L288.067 242.327L286.676 241.829L290.902 239.026L289.392 234L290.843 234.519L291.953 238.379L292.013 238.4L295.243 236.094L296.634 236.592Z" fill="white"/>
<path d="M357.634 9.59173L353.314 12.5142L354.767 17.3665L353.315 16.8471L352.726 14.777L352.254 13.1412L352.193 13.1195L350.821 14.0952L349.067 15.3266L347.676 14.8288L351.902 12.0262L350.392 6.99995L351.843 7.51939L352.953 11.3787L353.013 11.4003L356.243 9.09393L357.634 9.59173Z" fill="white"/>
<path d="M554.579 42.2238L549.692 44.0471L549.962 49.1051L548.673 48.2586L548.588 46.1079L548.514 44.4069L548.46 44.3716L546.896 44.9968L544.902 45.7808L543.667 44.9695L548.435 43.2405L548.15 38L549.438 38.8465L549.608 42.8585L549.662 42.8937L553.344 41.4125L554.579 42.2238Z" fill="white"/>
<path d="M22.6 170.286L25.6833 166.079L22.6803 162H24.2219L25.4745 163.75L26.4702 165.131H26.5344L27.4979 163.75L28.7344 162H30.2119L27.1767 166.063L30.2922 170.286H28.7505L26.4059 167.026H26.3417L24.0774 170.286H22.6Z" fill="white"/>
<path d="M326.903 70.7101C327.07 70.6126 327.126 70.3982 327.029 70.2313L325.439 67.5119C325.341 67.345 325.127 67.2888 324.96 67.3863C324.793 67.4839 324.737 67.6982 324.835 67.8651L326.248 70.2824L323.83 71.6954C323.663 71.793 323.607 72.0074 323.705 72.1742C323.802 72.3411 324.017 72.3973 324.184 72.2998L326.903 70.7101ZM307.16 85.9442C307.298 86.0802 307.519 86.0791 307.655 85.9417L309.871 83.7027C310.007 83.5653 310.006 83.3437 309.869 83.2077C309.731 83.0717 309.51 83.0729 309.374 83.2103L307.404 85.2005L305.414 83.231C305.276 83.095 305.055 83.0962 304.919 83.2336C304.783 83.371 304.784 83.5926 304.921 83.7285L307.16 85.9442ZM326.726 70.408L326.815 70.0694C324.51 69.465 321.977 69.4898 319.658 69.952L319.726 70.2953L319.795 70.6385C322.03 70.1931 324.453 70.1737 326.638 70.7465L326.726 70.408ZM319.726 70.2953L319.658 69.952C317.329 70.4163 315.14 71.404 313.259 72.8389L313.472 73.1171L313.684 73.3954C315.479 72.0255 317.57 71.082 319.795 70.6385L319.726 70.2953ZM313.472 73.1171L313.259 72.8389C311.379 74.2738 309.859 76.1174 308.817 78.2268L309.13 78.3818L309.444 78.5369C310.438 76.5247 311.889 74.7653 313.684 73.3954L313.472 73.1171ZM309.13 78.3818L308.817 78.2268C307.776 80.3335 307.044 83.3471 307.057 85.6973L307.407 85.6955L307.757 85.6936C307.745 83.4583 308.449 80.5517 309.444 78.5369L309.13 78.3818Z" fill="white"/>
<path d="M517.387 71.1157C517.573 71.0659 517.684 70.8741 517.635 70.6874L516.823 67.6437C516.773 67.457 516.581 67.3459 516.395 67.3957C516.208 67.4455 516.097 67.6373 516.147 67.8241L516.868 70.5296L514.163 71.251C513.976 71.3009 513.865 71.4926 513.915 71.6794C513.965 71.8662 514.156 71.9772 514.343 71.9274L517.387 71.1157ZM508.407 69.8136L508.475 70.1569L508.407 69.8136ZM501.98 72.7591L501.747 72.4982L501.743 72.5013L501.98 72.7591ZM497.696 78.4357L498.01 78.5908L498.012 78.5856L497.696 78.4357ZM496.16 85.9444C496.298 86.0803 496.519 86.0792 496.655 85.9418L498.871 83.7028C499.007 83.5654 499.006 83.3438 498.869 83.2078C498.731 83.0719 498.51 83.073 498.374 83.2104L496.404 85.2006L494.414 83.2311C494.276 83.0951 494.055 83.0963 493.919 83.2337C493.783 83.3711 493.784 83.5927 493.921 83.7286L496.16 85.9444ZM517.297 70.7775L517.472 70.4746C516.386 69.8458 514.669 69.4865 512.973 69.335C511.269 69.1827 509.52 69.2348 508.338 69.4704L508.407 69.8136L508.475 70.1569C509.57 69.9385 511.248 69.8836 512.911 70.0322C514.583 70.1816 516.172 70.5311 517.121 71.0804L517.297 70.7775ZM508.407 69.8136L508.338 69.4704C506.033 69.9298 503.849 70.6178 501.747 72.4982L501.98 72.7591L502.214 73.0199C504.182 71.2587 506.226 70.6051 508.475 70.1569L508.407 69.8136ZM501.98 72.7591L501.743 72.5013C499.732 74.3499 498.365 76.2066 497.38 78.2859L497.696 78.4357L498.012 78.5856C498.955 76.5948 500.266 74.8099 502.217 73.0168L501.98 72.7591ZM497.696 78.4357L497.382 78.2807C496.327 80.4169 496.045 83.3909 496.057 85.6974L496.407 85.6956L496.757 85.6938C496.745 83.4148 497.029 80.5762 498.01 78.5908L497.696 78.4357Z" fill="white"/>
<path d="M316.423 191.985C316.256 192.083 316.2 192.297 316.298 192.464L317.887 195.184C317.985 195.35 318.199 195.407 318.366 195.309C318.533 195.212 318.589 194.997 318.492 194.83L317.079 192.413L319.496 191C319.663 190.902 319.719 190.688 319.622 190.521C319.524 190.354 319.31 190.298 319.143 190.396L316.423 191.985ZM336.303 176.88C336.165 176.744 335.944 176.745 335.808 176.882L333.592 179.121C333.456 179.259 333.457 179.48 333.595 179.616C333.732 179.752 333.954 179.751 334.09 179.614L336.059 177.623L338.049 179.593C338.187 179.729 338.408 179.728 338.544 179.59C338.68 179.453 338.679 179.231 338.542 179.095L336.303 176.88ZM316.6 192.287L316.511 192.626C318.816 193.23 321.349 193.206 323.668 192.743L323.6 192.4L323.531 192.057C321.297 192.502 318.873 192.522 316.689 191.949L316.6 192.287ZM323.6 192.4L323.668 192.743C325.997 192.279 328.187 191.291 330.067 189.857L329.855 189.578L329.642 189.3C327.847 190.67 325.756 191.613 323.531 192.057L323.6 192.4ZM329.855 189.578L330.067 189.857C331.947 188.422 333.468 186.578 334.51 184.469L334.196 184.314L333.882 184.159C332.888 186.171 331.437 187.93 329.642 189.3L329.855 189.578ZM334.196 184.314L334.51 184.469C335.543 182.377 336.419 179.49 336.407 177.127L336.057 177.128L335.707 177.13C335.718 179.352 334.885 182.129 333.882 184.159L334.196 184.314Z" fill="white"/>
<path d="M292.546 74V72.79H294.426V68.11H294.336L292.916 69.97L291.956 69.22L293.626 67.02H295.926V72.79H297.406V74H292.546ZM300.602 74.12C299.669 74.12 298.979 73.8033 298.532 73.17C298.092 72.5367 297.872 71.65 297.872 70.51C297.872 69.37 298.092 68.4833 298.532 67.85C298.979 67.2167 299.669 66.9 300.602 66.9C301.535 66.9 302.222 67.2167 302.662 67.85C303.109 68.4833 303.332 69.37 303.332 70.51C303.332 71.65 303.109 72.5367 302.662 73.17C302.222 73.8033 301.535 74.12 300.602 74.12ZM300.602 72.94C301.049 72.94 301.359 72.7833 301.532 72.47C301.712 72.1567 301.802 71.72 301.802 71.16V69.86C301.802 69.3 301.712 68.8633 301.532 68.55C301.359 68.2367 301.049 68.08 300.602 68.08C300.155 68.08 299.842 68.2367 299.662 68.55C299.489 68.8633 299.402 69.3 299.402 69.86V71.16C299.402 71.72 299.489 72.1567 299.662 72.47C299.842 72.7833 300.155 72.94 300.602 72.94ZM300.602 71.1C300.369 71.1 300.205 71.0533 300.112 70.96C300.025 70.8667 299.982 70.7533 299.982 70.62V70.4C299.982 70.2667 300.025 70.1533 300.112 70.06C300.205 69.9667 300.369 69.92 300.602 69.92C300.835 69.92 300.995 69.9667 301.082 70.06C301.175 70.1533 301.222 70.2667 301.222 70.4V70.62C301.222 70.7533 301.175 70.8667 301.082 70.96C300.995 71.0533 300.835 71.1 300.602 71.1ZM308.848 68.33H305.618L305.458 70.54H305.548C305.621 70.38 305.705 70.2333 305.798 70.1C305.891 69.96 306.001 69.8433 306.128 69.75C306.255 69.65 306.401 69.5733 306.568 69.52C306.735 69.4667 306.925 69.44 307.138 69.44C307.425 69.44 307.695 69.49 307.948 69.59C308.208 69.69 308.435 69.8367 308.628 70.03C308.828 70.2167 308.985 70.45 309.098 70.73C309.211 71.0033 309.268 71.3133 309.268 71.66C309.268 72.0133 309.208 72.34 309.088 72.64C308.968 72.94 308.791 73.2 308.558 73.42C308.331 73.64 308.048 73.8133 307.708 73.94C307.368 74.06 306.981 74.12 306.548 74.12C306.208 74.12 305.905 74.0833 305.638 74.01C305.371 73.9367 305.135 73.84 304.928 73.72C304.728 73.5933 304.551 73.45 304.398 73.29C304.251 73.1233 304.125 72.9533 304.018 72.78L305.108 71.92C305.188 72.0533 305.271 72.18 305.358 72.3C305.451 72.42 305.555 72.5267 305.668 72.62C305.788 72.7067 305.918 72.7767 306.058 72.83C306.205 72.8767 306.371 72.9 306.558 72.9C306.931 72.9 307.211 72.8 307.398 72.6C307.591 72.3933 307.688 72.12 307.688 71.78V71.7C307.688 71.3733 307.591 71.1167 307.398 70.93C307.205 70.7433 306.938 70.65 306.598 70.65C306.318 70.65 306.085 70.7067 305.898 70.82C305.718 70.9267 305.581 71.0333 305.488 71.14L304.258 70.97L304.518 67.02H308.848V68.33Z" fill="white"/>
<path d="M311.101 68.06C310.901 68.06 310.721 68.03 310.561 67.97C310.401 67.9067 310.264 67.8167 310.151 67.7C310.041 67.5833 309.956 67.4417 309.896 67.275C309.836 67.1083 309.806 66.92 309.806 66.71C309.806 66.5 309.836 66.3117 309.896 66.145C309.956 65.9783 310.041 65.8367 310.151 65.72C310.264 65.6033 310.401 65.515 310.561 65.455C310.721 65.3917 310.901 65.36 311.101 65.36C311.301 65.36 311.481 65.3917 311.641 65.455C311.801 65.515 311.936 65.6033 312.046 65.72C312.159 65.8367 312.246 65.9783 312.306 66.145C312.366 66.3117 312.396 66.5 312.396 66.71C312.396 66.92 312.366 67.1083 312.306 67.275C312.246 67.4417 312.159 67.5833 312.046 67.7C311.936 67.8167 311.801 67.9067 311.641 67.97C311.481 68.03 311.301 68.06 311.101 68.06ZM311.101 67.51C311.268 67.51 311.398 67.4583 311.491 67.355C311.584 67.2517 311.631 67.105 311.631 66.915V66.505C311.631 66.315 311.584 66.1683 311.491 66.065C311.398 65.9617 311.268 65.91 311.101 65.91C310.934 65.91 310.804 65.9617 310.711 66.065C310.618 66.1683 310.571 66.315 310.571 66.505V66.915C310.571 67.105 310.618 67.2517 310.711 67.355C310.804 67.4583 310.934 67.51 311.101 67.51Z" fill="white"/>
<path d="M481.546 74V72.79H483.426V68.11H483.336L481.916 69.97L480.956 69.22L482.626 67.02H484.926V72.79H486.406V74H481.546ZM492.152 74H487.132V72.63L489.332 70.8C489.712 70.4733 489.985 70.19 490.152 69.95C490.319 69.71 490.402 69.4567 490.402 69.19V69.09C490.402 68.7967 490.315 68.5767 490.142 68.43C489.969 68.2767 489.735 68.2 489.442 68.2C489.109 68.2 488.852 68.2967 488.672 68.49C488.492 68.6833 488.365 68.9133 488.292 69.18L486.982 68.68C487.062 68.44 487.172 68.2133 487.312 68C487.452 67.78 487.629 67.59 487.842 67.43C488.062 67.27 488.315 67.1433 488.602 67.05C488.889 66.95 489.219 66.9 489.592 66.9C489.972 66.9 490.312 66.9533 490.612 67.06C490.912 67.1667 491.165 67.3133 491.372 67.5C491.579 67.6867 491.735 67.91 491.842 68.17C491.949 68.4233 492.002 68.7 492.002 69C492.002 69.2933 491.952 69.5633 491.852 69.81C491.759 70.05 491.625 70.2767 491.452 70.49C491.285 70.7033 491.085 70.91 490.852 71.11C490.625 71.31 490.382 71.51 490.122 71.71L488.792 72.74H492.152V74ZM497.848 68.33H494.618L494.458 70.54H494.548C494.621 70.38 494.705 70.2333 494.798 70.1C494.891 69.96 495.001 69.8433 495.128 69.75C495.255 69.65 495.401 69.5733 495.568 69.52C495.735 69.4667 495.925 69.44 496.138 69.44C496.425 69.44 496.695 69.49 496.948 69.59C497.208 69.69 497.435 69.8367 497.628 70.03C497.828 70.2167 497.985 70.45 498.098 70.73C498.211 71.0033 498.268 71.3133 498.268 71.66C498.268 72.0133 498.208 72.34 498.088 72.64C497.968 72.94 497.791 73.2 497.558 73.42C497.331 73.64 497.048 73.8133 496.708 73.94C496.368 74.06 495.981 74.12 495.548 74.12C495.208 74.12 494.905 74.0833 494.638 74.01C494.371 73.9367 494.135 73.84 493.928 73.72C493.728 73.5933 493.551 73.45 493.398 73.29C493.251 73.1233 493.125 72.9533 493.018 72.78L494.108 71.92C494.188 72.0533 494.271 72.18 494.358 72.3C494.451 72.42 494.555 72.5267 494.668 72.62C494.788 72.7067 494.918 72.7767 495.058 72.83C495.205 72.8767 495.371 72.9 495.558 72.9C495.931 72.9 496.211 72.8 496.398 72.6C496.591 72.3933 496.688 72.12 496.688 71.78V71.7C496.688 71.3733 496.591 71.1167 496.398 70.93C496.205 70.7433 495.938 70.65 495.598 70.65C495.318 70.65 495.085 70.7067 494.898 70.82C494.718 70.9267 494.581 71.0333 494.488 71.14L493.258 70.97L493.518 67.02H497.848V68.33Z" fill="white"/>
<path d="M500.101 68.06C499.901 68.06 499.721 68.03 499.561 67.97C499.401 67.9067 499.264 67.8167 499.151 67.7C499.041 67.5833 498.956 67.4417 498.896 67.275C498.836 67.1083 498.806 66.92 498.806 66.71C498.806 66.5 498.836 66.3117 498.896 66.145C498.956 65.9783 499.041 65.8367 499.151 65.72C499.264 65.6033 499.401 65.515 499.561 65.455C499.721 65.3917 499.901 65.36 500.101 65.36C500.301 65.36 500.481 65.3917 500.641 65.455C500.801 65.515 500.936 65.6033 501.046 65.72C501.159 65.8367 501.246 65.9783 501.306 66.145C501.366 66.3117 501.396 66.5 501.396 66.71C501.396 66.92 501.366 67.1083 501.306 67.275C501.246 67.4417 501.159 67.5833 501.046 67.7C500.936 67.8167 500.801 67.9067 500.641 67.97C500.481 68.03 500.301 68.06 500.101 68.06ZM500.101 67.51C500.268 67.51 500.398 67.4583 500.491 67.355C500.584 67.2517 500.631 67.105 500.631 66.915V66.505C500.631 66.315 500.584 66.1683 500.491 66.065C500.398 65.9617 500.268 65.91 500.101 65.91C499.934 65.91 499.804 65.9617 499.711 66.065C499.618 66.1683 499.571 66.315 499.571 66.505V66.915C499.571 67.105 499.618 67.2517 499.711 67.355C499.804 67.4583 499.934 67.51 500.101 67.51Z" fill="white"/>
<path d="M332.546 197V195.79H334.426V191.11H334.336L332.916 192.97L331.956 192.22L333.626 190.02H335.926V195.79H337.406V197H332.546ZM340.602 197.12C339.669 197.12 338.979 196.803 338.532 196.17C338.092 195.537 337.872 194.65 337.872 193.51C337.872 192.37 338.092 191.483 338.532 190.85C338.979 190.217 339.669 189.9 340.602 189.9C341.535 189.9 342.222 190.217 342.662 190.85C343.109 191.483 343.332 192.37 343.332 193.51C343.332 194.65 343.109 195.537 342.662 196.17C342.222 196.803 341.535 197.12 340.602 197.12ZM340.602 195.94C341.049 195.94 341.359 195.783 341.532 195.47C341.712 195.157 341.802 194.72 341.802 194.16V192.86C341.802 192.3 341.712 191.863 341.532 191.55C341.359 191.237 341.049 191.08 340.602 191.08C340.155 191.08 339.842 191.237 339.662 191.55C339.489 191.863 339.402 192.3 339.402 192.86V194.16C339.402 194.72 339.489 195.157 339.662 195.47C339.842 195.783 340.155 195.94 340.602 195.94ZM340.602 194.1C340.369 194.1 340.205 194.053 340.112 193.96C340.025 193.867 339.982 193.753 339.982 193.62V193.4C339.982 193.267 340.025 193.153 340.112 193.06C340.205 192.967 340.369 192.92 340.602 192.92C340.835 192.92 340.995 192.967 341.082 193.06C341.175 193.153 341.222 193.267 341.222 193.4V193.62C341.222 193.753 341.175 193.867 341.082 193.96C340.995 194.053 340.835 194.1 340.602 194.1ZM348.848 191.33H345.618L345.458 193.54H345.548C345.621 193.38 345.705 193.233 345.798 193.1C345.891 192.96 346.001 192.843 346.128 192.75C346.255 192.65 346.401 192.573 346.568 192.52C346.735 192.467 346.925 192.44 347.138 192.44C347.425 192.44 347.695 192.49 347.948 192.59C348.208 192.69 348.435 192.837 348.628 193.03C348.828 193.217 348.985 193.45 349.098 193.73C349.211 194.003 349.268 194.313 349.268 194.66C349.268 195.013 349.208 195.34 349.088 195.64C348.968 195.94 348.791 196.2 348.558 196.42C348.331 196.64 348.048 196.813 347.708 196.94C347.368 197.06 346.981 197.12 346.548 197.12C346.208 197.12 345.905 197.083 345.638 197.01C345.371 196.937 345.135 196.84 344.928 196.72C344.728 196.593 344.551 196.45 344.398 196.29C344.251 196.123 344.125 195.953 344.018 195.78L345.108 194.92C345.188 195.053 345.271 195.18 345.358 195.3C345.451 195.42 345.555 195.527 345.668 195.62C345.788 195.707 345.918 195.777 346.058 195.83C346.205 195.877 346.371 195.9 346.558 195.9C346.931 195.9 347.211 195.8 347.398 195.6C347.591 195.393 347.688 195.12 347.688 194.78V194.7C347.688 194.373 347.591 194.117 347.398 193.93C347.205 193.743 346.938 193.65 346.598 193.65C346.318 193.65 346.085 193.707 345.898 193.82C345.718 193.927 345.581 194.033 345.488 194.14L344.258 193.97L344.518 190.02H348.848V191.33Z" fill="white"/>
<path d="M351.101 191.06C350.901 191.06 350.721 191.03 350.561 190.97C350.401 190.907 350.264 190.817 350.151 190.7C350.041 190.583 349.956 190.442 349.896 190.275C349.836 190.108 349.806 189.92 349.806 189.71C349.806 189.5 349.836 189.312 349.896 189.145C349.956 188.978 350.041 188.837 350.151 188.72C350.264 188.603 350.401 188.515 350.561 188.455C350.721 188.392 350.901 188.36 351.101 188.36C351.301 188.36 351.481 188.392 351.641 188.455C351.801 188.515 351.936 188.603 352.046 188.72C352.159 188.837 352.246 188.978 352.306 189.145C352.366 189.312 352.396 189.5 352.396 189.71C352.396 189.92 352.366 190.108 352.306 190.275C352.246 190.442 352.159 190.583 352.046 190.7C351.936 190.817 351.801 190.907 351.641 190.97C351.481 191.03 351.301 191.06 351.101 191.06ZM351.101 190.51C351.268 190.51 351.398 190.458 351.491 190.355C351.584 190.252 351.631 190.105 351.631 189.915V189.505C351.631 189.315 351.584 189.168 351.491 189.065C351.398 188.962 351.268 188.91 351.101 188.91C350.934 188.91 350.804 188.962 350.711 189.065C350.618 189.168 350.571 189.315 350.571 189.505V189.915C350.571 190.105 350.618 190.252 350.711 190.355C350.804 190.458 350.934 190.51 351.101 190.51Z" fill="white"/>
<path d="M536.6 44L481.6 124" stroke="#7B7B7B" stroke-width="0.7"/>
<path d="M552.133 54.5431L502.01 124.619" stroke="#7B7B7B" stroke-width="0.7"/>
<mask id="path-394-inside-3_6_1045" fill="white">
<path d="M155.6 15H222.6V272H155.6V15Z"/>
</mask>
<path d="M222.6 15H221.9V272H222.6H223.3V15H222.6ZM155.6 272H156.3V15H155.6H154.9V272H155.6Z" fill="url(#paint0_linear_6_1045)" mask="url(#path-394-inside-3_6_1045)"/>
<path d="M181.497 5.15075C181.886 5.15075 182.17 5.07364 182.349 4.91942C182.534 4.7652 182.626 4.57089 182.626 4.33648V4.27171C182.626 4.00646 182.537 3.79981 182.358 3.65176C182.185 3.50371 181.945 3.42969 181.636 3.42969C181.34 3.42969 181.081 3.49754 180.859 3.63325C180.637 3.76896 180.446 3.96019 180.285 4.20694L179.499 3.50371C179.61 3.35566 179.733 3.21687 179.869 3.08732C180.011 2.95161 180.168 2.83749 180.341 2.74496C180.52 2.64626 180.717 2.56916 180.933 2.51364C181.149 2.45812 181.396 2.43036 181.673 2.43036C182 2.43036 182.299 2.47046 182.571 2.55065C182.848 2.62467 183.083 2.73571 183.274 2.88376C183.471 3.03181 183.623 3.2107 183.727 3.42043C183.838 3.624 183.894 3.85533 183.894 4.11441C183.894 4.31798 183.86 4.50304 183.792 4.66959C183.724 4.83614 183.632 4.98111 183.515 5.10448C183.404 5.22786 183.271 5.32964 183.117 5.40983C182.969 5.49002 182.808 5.54863 182.636 5.58564V5.6319C182.827 5.66892 183.006 5.7306 183.172 5.81696C183.339 5.89716 183.484 6.00202 183.607 6.13157C183.73 6.26111 183.829 6.41841 183.903 6.60347C183.977 6.78236 184.014 6.98593 184.014 7.21417C184.014 7.49793 183.956 7.75701 183.838 7.99142C183.721 8.22583 183.555 8.42631 183.339 8.59287C183.129 8.75942 182.873 8.88896 182.571 8.98149C182.275 9.06786 181.942 9.11104 181.571 9.11104C181.263 9.11104 180.988 9.07711 180.748 9.00925C180.507 8.94757 180.295 8.8612 180.109 8.75017C179.924 8.63913 179.764 8.51267 179.628 8.3708C179.493 8.22275 179.372 8.07161 179.267 7.9174L180.165 7.22342C180.319 7.48251 180.501 7.69533 180.711 7.86188C180.927 8.02843 181.22 8.11171 181.59 8.11171C181.96 8.11171 182.244 8.02843 182.441 7.86188C182.645 7.68916 182.747 7.45166 182.747 7.1494V7.07537C182.747 6.77928 182.639 6.55412 182.423 6.3999C182.207 6.23952 181.901 6.15933 181.507 6.15933H180.859V5.15075H181.497ZM186.102 9.10178C185.781 9.10178 185.553 9.03393 185.417 8.89822C185.281 8.76251 185.213 8.59595 185.213 8.39855V8.12096C185.213 7.92357 185.281 7.75701 185.417 7.6213C185.553 7.48559 185.781 7.41773 186.102 7.41773C186.423 7.41773 186.651 7.48559 186.787 7.6213C186.922 7.75701 186.99 7.92357 186.99 8.12096V8.39855C186.99 8.59595 186.922 8.76251 186.787 8.89822C186.651 9.03393 186.423 9.10178 186.102 9.10178ZM190.447 9.11104C190.065 9.11104 189.725 9.06477 189.429 8.97224C189.133 8.87354 188.883 8.74092 188.68 8.57436C188.476 8.40781 188.322 8.21041 188.217 7.98217C188.112 7.75393 188.06 7.5041 188.06 7.23267C188.06 6.80704 188.177 6.46467 188.411 6.20559C188.652 5.94651 188.967 5.76453 189.355 5.65966V5.58564C189.022 5.46843 188.754 5.28646 188.55 5.03971C188.353 4.79296 188.254 4.48145 188.254 4.10516C188.254 3.85841 188.303 3.63325 188.402 3.42969C188.501 3.21995 188.643 3.04106 188.828 2.89301C189.013 2.74496 189.241 2.63084 189.513 2.55065C189.784 2.47046 190.095 2.43036 190.447 2.43036C190.799 2.43036 191.11 2.47046 191.382 2.55065C191.653 2.63084 191.881 2.74496 192.066 2.89301C192.251 3.04106 192.393 3.21995 192.492 3.42969C192.591 3.63325 192.64 3.85841 192.64 4.10516C192.64 4.48145 192.538 4.79296 192.335 5.03971C192.137 5.28646 191.872 5.46843 191.539 5.58564V5.65966C191.928 5.76453 192.239 5.94651 192.473 6.20559C192.714 6.46467 192.834 6.80704 192.834 7.23267C192.834 7.5041 192.782 7.75393 192.677 7.98217C192.572 8.21041 192.418 8.40781 192.214 8.57436C192.011 8.74092 191.761 8.87354 191.465 8.97224C191.169 9.06477 190.83 9.11104 190.447 9.11104ZM190.447 8.16723C190.811 8.16723 191.089 8.08704 191.28 7.92665C191.477 7.7601 191.576 7.53186 191.576 7.24193V7.05687C191.576 6.76077 191.48 6.53253 191.289 6.37214C191.098 6.20559 190.817 6.12231 190.447 6.12231C190.077 6.12231 189.796 6.20559 189.605 6.37214C189.414 6.53253 189.318 6.76077 189.318 7.05687V7.24193C189.318 7.53186 189.414 7.7601 189.605 7.92665C189.802 8.08704 190.083 8.16723 190.447 8.16723ZM190.447 5.22477C190.786 5.22477 191.045 5.14766 191.224 4.99345C191.403 4.83923 191.493 4.62641 191.493 4.35499V4.22545C191.493 3.96019 191.403 3.75354 191.224 3.60549C191.045 3.45128 190.786 3.37417 190.447 3.37417C190.108 3.37417 189.849 3.45128 189.67 3.60549C189.491 3.75354 189.401 3.96019 189.401 4.22545V4.35499C189.401 4.62641 189.491 4.83923 189.67 4.99345C189.849 5.14766 190.108 5.22477 190.447 5.22477Z" fill="white"/>
<path d="M194.242 9L196.019 6.57571L194.316 4.22545H195.491L196.121 5.13224L196.62 5.85398H196.676L197.166 5.13224L197.795 4.22545H198.887L197.175 6.5387L198.971 9H197.786L197.074 7.97292L196.583 7.26969H196.528L196.047 7.97292L195.343 9H194.242Z" fill="white"/>
<path d="M1.13017 170V168.68H3.49894V162.561H3.3879L1.51263 164.781L0.500964 163.93L2.63533 161.389H5.11513V168.68H7.06443V170H1.13017ZM9.50241 170.136C9.07471 170.136 8.77039 170.045 8.58945 169.864C8.4085 169.683 8.31802 169.461 8.31802 169.198V168.828C8.31802 168.565 8.4085 168.343 8.58945 168.162C8.77039 167.981 9.07471 167.89 9.50241 167.89C9.9301 167.89 10.2344 167.981 10.4154 168.162C10.5963 168.343 10.6868 168.565 10.6868 168.828V169.198C10.6868 169.461 10.5963 169.683 10.4154 169.864C10.2344 170.045 9.9301 170.136 9.50241 170.136ZM12.7176 170V168.68H15.0864V162.561H14.9754L13.1001 164.781L12.0884 163.93L14.2228 161.389H16.7026V168.68H18.6519V170H12.7176Z" fill="white"/>
<path d="M159.92 2.91695C160.116 2.72175 160.432 2.72171 160.627 2.91695C160.822 3.11224 160.822 3.42891 160.627 3.62399L158.298 5.95211H177.159V6.95211H158.298L160.627 9.28024C160.822 9.47539 160.822 9.79205 160.627 9.98727C160.432 10.1824 160.116 10.1823 159.92 9.98727L156.738 6.80563C156.543 6.61041 156.543 6.29383 156.738 6.0986L159.92 2.91695ZM217.821 2.91695C218.016 2.72169 218.333 2.72169 218.528 2.91695L221.709 6.0986C221.904 6.29388 221.905 6.61045 221.709 6.80563L218.528 9.98727C218.333 10.1824 218.016 10.1823 217.821 9.98727C217.626 9.79203 217.626 9.47551 217.821 9.28024L220.149 6.95211H200.159V5.95211H220.149L217.821 3.62399C217.626 3.42877 217.626 3.11223 217.821 2.91695Z" fill="url(#paint1_linear_6_1045)"/>
<path d="M155.976 2.99805V9.99805" stroke="#565656" stroke-width="0.7"/>
<path d="M222.27 2.9917L222.249 9.98435" stroke="#565656" stroke-width="0.7"/>
<g filter="url(#filter0_d_6_1045)">
<path d="M294.055 115.072C294.055 110.752 293.462 106.866 292.282 103.409C291.103 99.9555 289.336 97.0141 286.985 94.5791L286.98 94.5742V94.5732C284.716 92.1417 281.904 90.2936 278.538 89.0312L278.531 89.0293C275.166 87.6832 271.328 87.0059 267.013 87.0059H232.803V175.65H251.431V143.138H267.013C271.33 143.138 275.171 142.503 278.538 141.24C281.905 139.893 284.717 138.001 286.981 135.569L286.985 135.564C289.336 133.13 291.103 130.189 292.282 126.735C293.462 123.279 294.055 119.392 294.055 115.072ZM323.602 86.1504L351.445 86.3057L351.711 86.3076L351.781 86.5645L375.973 175.908L376.093 176.35H354.885L354.816 176.089L349.253 154.846H325.347L319.91 176.087L319.843 176.35H299.661L299.776 175.911L323.262 86.4111L323.33 86.1484L323.602 86.1504ZM447.555 115.072C447.555 110.752 446.962 106.866 445.782 103.409C444.603 99.9555 442.836 97.0141 440.485 94.5791L440.48 94.5742V94.5732C438.216 92.1417 435.404 90.2936 432.038 89.0312L432.031 89.0293C428.666 87.6832 424.828 87.0059 420.513 87.0059H386.303V175.65H404.547V142.498H413.955L414.048 142.704L428.932 175.65H449.136L431.847 140.442L431.663 140.067L432.064 139.952C437.013 138.526 440.824 135.595 443.51 131.147C446.201 126.689 447.555 121.336 447.555 115.072ZM481.229 86.3057V123.682H481.714L491.338 108.992L491.344 108.983L507.088 86.4551L507.192 86.3057H529.556L529.165 86.8584L502.538 124.44L530.467 175.833L530.748 176.35H508.316L508.218 176.164L488.77 139.417L481.229 149.998V176.35H461.329V86.3057H481.229ZM598.866 86.3057L598.964 86.4961L606.26 100.704L606.264 100.712L606.266 100.719L612.701 114.85H613.277L619.839 100.717L619.843 100.707L619.849 100.697L627.528 86.4893L627.628 86.3057H648.518L648.24 86.8223L624.906 130.046L649.903 175.832L650.185 176.35H627.495L627.397 176.161L618.182 158.369L618.177 158.359L618.173 158.351L611.992 144.478H611.294L604.986 158.353L604.982 158.363L604.976 158.372L595.505 176.164L595.406 176.35H574.512L574.793 175.833L599.79 129.792L588.169 108.391L576.456 86.8232L576.176 86.3057H598.866ZM462.029 175.65H480.529V149.776L480.594 149.685L488.53 138.549L488.859 138.087L489.124 138.588L508.738 175.65H529.571L501.819 124.583L501.716 124.392L501.842 124.214L528.203 87.0059H507.557L491.918 109.385L482.196 124.224L482.092 124.382H480.529V87.0059H462.029V175.65ZM300.569 175.65H319.3L324.736 154.409L324.804 154.146H349.793L349.861 154.407L355.426 175.65H375.178L351.175 87.0039L323.869 86.8506L300.569 175.65ZM337.816 104.725L338.092 104.94L338.184 105.015L338.214 105.13L346.939 139.414L347.051 139.85H328.653L328.761 139.416L337.261 104.916L337.39 104.39L337.816 104.725ZM329.547 139.15H346.149L337.714 106.002L329.547 139.15ZM273.831 113.152C273.831 109.268 272.943 106.568 271.252 104.957L271.245 104.951V104.95C269.642 103.348 266.651 102.494 262.149 102.494H252.131V127.65H262.149C266.652 127.65 269.643 126.796 271.246 125.192L271.252 125.187L271.408 125.032C272.997 123.406 273.831 120.755 273.831 116.992V113.152ZM427.587 113.152C427.587 109.268 426.699 106.568 425.008 104.957L425.002 104.951C423.399 103.348 420.408 102.494 415.905 102.494H405.247V127.65H415.905C420.408 127.65 423.399 126.796 425.002 125.192L425.008 125.187L425.164 125.032C426.753 123.406 427.587 120.755 427.587 116.992V113.152ZM294.755 115.072C294.755 119.456 294.153 123.42 292.944 126.961C291.735 130.503 289.918 133.532 287.492 136.046L287.493 136.047C285.151 138.562 282.248 140.51 278.791 141.893L278.784 141.896C275.325 143.193 271.399 143.838 267.013 143.838H252.131V176.35H232.103V86.3057H267.013C271.398 86.3057 275.323 86.9935 278.783 88.376C282.241 89.6726 285.145 91.5779 287.488 94.0928C289.916 96.6071 291.734 99.6391 292.944 103.183C294.153 106.723 294.755 110.688 294.755 115.072ZM448.255 115.072C448.255 121.438 446.878 126.922 444.108 131.509C441.405 135.986 437.584 138.987 432.657 140.504L450.012 175.846L450.259 176.35H428.479L428.386 176.145L413.503 143.198H405.247V176.35H385.603V86.3057H420.513C424.898 86.3057 428.823 86.9935 432.283 88.376C435.741 89.6726 438.645 91.5779 440.988 94.0928C443.416 96.6071 445.234 99.6391 446.444 103.183C447.653 106.723 448.255 110.688 448.255 115.072ZM274.531 116.992C274.531 120.959 273.627 123.891 271.734 125.693C269.923 127.499 266.687 128.35 262.149 128.35H251.431V101.794H262.149C266.687 101.794 269.923 102.644 271.734 104.45C273.627 106.253 274.531 109.186 274.531 113.152V116.992ZM428.287 116.992C428.287 120.954 427.384 123.883 425.496 125.687C423.686 127.497 420.448 128.35 415.905 128.35H404.547V101.794H415.905C420.448 101.794 423.687 102.646 425.497 104.456H425.496C427.385 106.259 428.287 109.19 428.287 113.152V116.992Z" stroke="#7B7B7B" stroke-width="0.7" shape-rendering="crispEdges"/>
</g>
<g filter="url(#filter1_n_6_1045)">
<path d="M355.405 176L349.773 154.496H325.325L319.821 176H300.365L323.827 86.5966L351.693 86.6559L375.885 176H355.405ZM338.125 105.216L337.461 105.332L328.88 139.753L346.662 139.515L338.125 105.216Z" fill="url(#paint2_linear_6_1045)"/>
</g>
<path d="M286.278 230.176L285.6 230L341.011 16.856L341.688 17.0319L286.278 230.176ZM305.389 235.104L304.711 234.928L358.422 20.8241L359.1 21L305.389 235.104Z" fill="#7B7B7B"/>
<defs>
<filter id="filter0_d_6_1045" x="228.103" y="85.9561" width="426.673" height="98.7439" filterUnits="userSpaceOnUse" color-interpolation-filters="sRGB">
<feFlood flood-opacity="0" result="BackgroundImageFix"/>
<feColorMatrix in="SourceAlpha" type="matrix" values="0 0 0 0 0 0 0 0 0 0 0 0 0 0 0 0 0 0 127 0" result="hardAlpha"/>
<feOffset dy="4"/>
<feGaussianBlur stdDeviation="2"/>
<feComposite in2="hardAlpha" operator="out"/>
<feColorMatrix type="matrix" values="0 0 0 0 0 0 0 0 0 0 0 0 0 0 0 0 0 0 0.25 0"/>
<feBlend mode="normal" in2="BackgroundImageFix" result="effect1_dropShadow_6_1045"/>
<feBlend mode="normal" in="SourceGraphic" in2="effect1_dropShadow_6_1045" result="shape"/>
</filter>
<filter id="filter1_n_6_1045" x="300.365" y="86.5966" width="75.52" height="89.4034" filterUnits="userSpaceOnUse" color-interpolation-filters="sRGB">
<feFlood flood-opacity="0" result="BackgroundImageFix"/>
<feBlend mode="normal" in="SourceGraphic" in2="BackgroundImageFix" result="shape"/>
<feTurbulence type="fractalNoise" baseFrequency="3.3333332538604736 3.3333332538604736" stitchTiles="stitch" numOctaves="3" result="noise" seed="438" />
<feColorMatrix in="noise" type="luminanceToAlpha" result="alphaNoise" />
<feComponentTransfer in="alphaNoise" result="coloredNoise1">
<feFuncA type="discrete" tableValues="0 0 0 0 0 0 0 0 1 1 1 1 1 1 1 1 1 1 1 1 1 1 1 1 1 1 1 1 1 1 1 1 1 1 1 1 1 1 1 1 1 1 0 0 0 0 0 0 0 0 0 0 0 0 0 0 0 0 0 0 0 0 0 0 0 0 0 0 0 0 0 0 0 0 0 0 0 0 0 0 0 0 0 0 0 0 0 0 0 0 0 0 0 0 0 0 0 0 0 0 "/>
</feComponentTransfer>
<feComposite operator="in" in2="shape" in="coloredNoise1" result="noise1Clipped" />
<feFlood flood-color="rgba(70, 54, 67, 0.25)" result="color1Flood" />
<feComposite operator="in" in2="noise1Clipped" in="color1Flood" result="color1" />
<feMerge result="effect1_noise_6_1045">
<feMergeNode in="shape" />
<feMergeNode in="color1" />
</feMerge>
</filter>
<linearGradient id="paint0_linear_6_1045" x1="189.1" y1="15" x2="189.1" y2="283.784" gradientUnits="userSpaceOnUse">
<stop stop-color="#565656"/>
<stop offset="0.705706" stop-color="#565656"/>
<stop offset="1" stop-opacity="0"/>
</linearGradient>
<linearGradient id="paint1_linear_6_1045" x1="221.856" y1="-0.911028" x2="156.591" y2="-0.911028" gradientUnits="userSpaceOnUse">
<stop stop-color="#565656"/>
</linearGradient>
<linearGradient id="paint2_linear_6_1045" x1="338.6" y1="77.5" x2="338.6" y2="186" gradientUnits="userSpaceOnUse">
<stop stop-color="#D53F82"/>
<stop offset="0.614528" stop-color="#D68165"/>
<stop offset="1" stop-color="#E5B641"/>
</linearGradient>
<clipPath id="clip0_6_1045">
<rect width="17" height="8" fill="white" transform="translate(725.6 86) rotate(90)"/>
</clipPath>
<clipPath id="clip1_6_1045">
<rect width="67" height="17" fill="white" transform="translate(155.6 15)"/>
</clipPath>
<clipPath id="clip2_6_1045">
<rect width="18.5975" height="8.62035" fill="white" transform="translate(547.078 61.4851) rotate(-146.329)"/>
</clipPath>
<clipPath id="clip3_6_1045">
<rect width="19.2185" height="8.62035" fill="white" transform="translate(304.865 234.549) rotate(-167.325)"/>
</clipPath>
<clipPath id="clip4_6_1045">
<rect width="18.1768" height="8.62035" fill="white" transform="translate(357.061 29.3318) rotate(-167.344)"/>
</clipPath>
<clipPath id="clip5_6_1045">
<rect width="21" height="8" fill="white" transform="translate(42.6 155) rotate(90)"/>
</clipPath>
<clipPath id="clip6_6_1045">
<rect width="17" height="8" fill="white" transform="translate(42.6 86) rotate(90)"/>
</clipPath>
<clipPath id="clip7_6_1045">
<rect width="21" height="8" fill="white" transform="translate(723.6 155) rotate(90)"/>
</clipPath>
</defs>
</svg>
